<?xml version="1.0" encoding="utf-8"?>
<!-- Generator: Adobe Illustrator 24.3.0, SVG Export Plug-In . SVG Version: 6.00 Build 0)  -->
<svg version="1.1" id="Capa_1" xmlns="http://www.w3.org/2000/svg" xmlns:xlink="http://www.w3.org/1999/xlink" x="0px" y="0px"
	 viewBox="0 0 512 512" style="enable-background:new 0 0 512 512;" xml:space="preserve">
<style type="text/css">
	.st0{fill:#E11919;}
</style>
<g>
	<g>
		<path class="st0" d="M490,270.6c-14-14.8-33-23.8-53.4-25.2l-4.9-0.5c-0.2,0-0.5,0-0.7,0c-7.6,0-15.3,1.2-23.3,3.7l-5.8-5.8
			c4.2-10.6,1.9-22.9-6.4-31.2l-1-1c-6-6-14-8.8-21.9-8.5c0.4-7.9-2.5-15.9-8.5-21.9l-1-1c-6-6-14-8.8-21.9-8.5
			c0.4-7.9-2.5-15.9-8.5-21.9l-1-1c-6-6-14-8.8-21.9-8.5c0.4-7.9-2.5-16-8.5-21.9l-0.9-0.9c-8.4-8.4-20.7-10.6-31.3-6.4l-5.8-5.8
			c2.5-8,3.7-15.7,3.7-23.3c0-0.2,0-0.5,0-0.7l-0.5-4.9c-0.8-11.5-4-22.5-9.4-32.7c-2-3.7-6.5-5-10.1-3.1c-3.7,2-5,6.5-3.1,10.1
			c4.4,8.3,7,17.3,7.7,26.8c0,0.1,0,0.1,0,0.2l0.4,4.7c0,7.2-1.5,14.6-4.3,22.4c-1,2.7-0.3,5.8,1.7,7.9l7.4,7.4l-32.7,32.7l-7.4-7.4
			c-2.1-2.1-5.2-2.7-7.9-1.7c-7.7,2.8-15.1,4.3-22.5,4.3l-4.5-0.5c-0.1,0-0.1,0-0.2,0c-34.5-2.4-61.5-31.1-61.5-65.4
			c0-6.1,0.9-12.2,2.6-18.1l40.7,40.6c3,3.1,6.7,5.5,11.4,7.2c3.7,1.4,7.4,2.2,11.2,2.2c8.6,0,16.6-3.3,22.6-9.3
			c8.8-8.6,11.7-21.8,7.4-33.7c-0.1-0.1-0.1-0.3-0.2-0.4c-1.3-3-3.4-7.4-7.3-11.1l-40.6-40.6c5.9-1.8,12-2.7,18.1-2.7
			c15,0,29.1,4.9,40.8,14.3c3.2,2.6,8,2.1,10.5-1.2c2.6-3.2,2.1-8-1.2-10.5C222,6.1,204.6,0,186.1,0c-11.9,0-23.6,2.7-34.7,8.2
			c-2.2,1.1-3.7,3.1-4.1,5.5c-0.4,2.4,0.4,4.8,2.1,6.5L198.2,69c0,0,0.1,0.1,0.1,0.1c1.4,1.4,2.6,3.2,3.8,6
			c2.2,6.3,0.7,13.3-3.9,17.8c-3.2,3.2-7.5,5-12,5c-1.9,0-3.8-0.4-5.8-1.2c-2.6-1-4.6-2.2-6-3.7c0,0-0.1-0.1-0.1-0.1l-48.9-48.8
			c-1.7-1.7-4.2-2.5-6.6-2.1c-2.4,0.4-4.4,2-5.5,4.2c-5.3,11.2-8,22.9-8,34.8c0,20.6,7.8,40.2,22,55.2
			c11.4,12.1,26.1,20.2,42.3,23.6c-5.7,13.2-3.5,29.2,6.5,40.3l-17.4,17.4c-6.5,6.5-10.1,15.1-10.1,24.3c0,8.5,3.1,16.5,8.7,22.8
			l-27,27L114,275.6c-2.9-2.9-7.7-2.9-10.6,0l-40.3,40.3c0,0,0,0,0,0.1L2.2,376.8c-2.9,2.9-2.9,7.7,0,10.6L49,434.1
			c2.9,2.9,7.7,2.9,10.6,0c2.9-2.9,2.9-7.7,0-10.6l-41.5-41.5l56.2-56.2l111.8,111.8l-56.2,56.2l-49.5-49.5c-2.9-2.9-7.7-2.9-10.6,0
			c-2.9,2.9-2.9,7.7,0,10.6l54.8,54.8c1.4,1.4,3.3,2.2,5.3,2.2c2,0,3.9-0.8,5.3-2.2L196,449c0,0,0.1-0.1,0.1-0.1l40.3-40.3
			c1.4-1.4,2.2-3.3,2.2-5.3s-0.8-3.9-2.2-5.3l-12.3-12.3l27.5-27.5c11.7,7.5,27,7.3,38.7-1.2c3.3-2.4,4.1-7.1,1.6-10.5
			c-2.4-3.3-7.1-4.1-10.5-1.6c-7.8,5.7-18.3,4.8-25.1-2c-1.4-1.4-3.3-2.2-5.3-2.2s-3.9,0.8-5.3,2.2l-32.3,32.3l-72.8-72.8l32.3-32.3
			c2.9-2.9,2.9-7.7,0-10.6l-3.9-3.9c-3.7-3.7-5.7-8.5-5.7-13.7s2-10.1,5.7-13.7l22.7-22.7c0,0,0,0,0,0c0,0,0,0,0,0l37.7-37.7
			c0,0,0,0,0.1,0s0,0,0-0.1l40.5-40.5c0.6-0.6,1.3-1.1,2-1.6c5.5-3.8,13-3.1,17.8,1.7l0.9,0.9c4.8,4.8,5.5,12.3,1.6,17.8
			c-0.5,0.7-1,1.3-1.6,1.9c0,0,0,0,0,0l-44.7,44.7c-2.9,2.9-2.9,7.7,0,10.6c1.5,1.5,3.4,2.2,5.3,2.2c1.9,0,3.8-0.7,5.3-2.2
			l44.6-44.6c0,0,0,0,0,0c0.6-0.6,1.3-1.2,2-1.6c5.5-3.8,13-3.1,17.8,1.6l1,1c4.8,4.8,5.5,12.3,1.6,17.8c-0.5,0.7-1,1.3-1.6,1.9
			c0,0,0,0,0,0l-44.7,44.7c-2.9,2.9-2.9,7.7,0,10.6c1.5,1.5,3.4,2.2,5.3,2.2s3.8-0.7,5.3-2.2l44.6-44.6c0,0,0,0,0,0
			c0.6-0.6,1.3-1.1,2-1.6c5.5-3.8,13-3.1,17.8,1.6l1,1c4.8,4.8,5.5,12.3,1.6,17.8c-0.5,0.7-1,1.3-1.6,1.9c0,0,0,0,0,0l-44.6,44.6
			c-2.9,2.9-2.9,7.7,0,10.6c1.5,1.5,3.4,2.2,5.3,2.2s3.8-0.7,5.3-2.2l44.7-44.7c0,0,0,0,0,0c0.6-0.6,1.2-1.1,1.9-1.6
			c5.5-3.8,13-3.1,17.8,1.6l1,1c4.8,4.8,5.5,12.2,1.6,17.8c-0.5,0.7-1,1.4-1.6,2l-83,83.1c-2.9,2.9-2.9,7.7,0,10.6
			c1.5,1.5,3.4,2.2,5.3,2.2c1.9,0,3.8-0.7,5.3-2.2l37.2-37.2l4.1,4.1c-2.4,7.8-3.7,15.7-3.7,23.5c0,0.2,0,0.5,0,0.7l0.5,4.8
			c1.4,20.4,10.4,39.4,25.2,53.4c15,14.2,34.6,22,55.2,22c11.9,0,23.6-2.7,34.8-8c2.2-1,3.8-3.1,4.2-5.5c0.4-2.4-0.4-4.9-2.1-6.6
			l-48.8-48.9c0,0-0.1-0.1-0.1-0.1c-2-1.9-3.1-4.2-3.6-5.8c0-0.1,0-0.1-0.1-0.2c-2.4-6.4-1-13.3,3.7-17.9c3.2-3.2,7.5-5,11.9-5
			c1.9,0,3.8,0.4,5.7,1.1c0.1,0,0.1,0,0.2,0.1c2.7,1,4.7,2.2,6,3.7c0,0,0.1,0.1,0.1,0.1l48.8,48.8c1.7,1.7,4.2,2.5,6.5,2.1
			c2.4-0.4,4.4-1.9,5.5-4.1c5.4-11.1,8.2-22.8,8.2-34.7C512,305.2,504.2,285.6,490,270.6z M208.2,391C208.2,391,208.2,391,208.2,391
			C208.2,391,208.2,391,208.2,391l12.3,12.3l-23.8,23.8L84.9,315.3l23.8-23.8l16.1,16.1c0,0,0,0,0,0s0,0,0,0L208.2,391z
			 M186.6,189.5c-6.6-7.8-7-19.3-1.2-27.6c0.2,0,0.5,0,0.7,0c7.7,0,15.6-1.2,23.5-3.7l4.1,4.1L186.6,189.5z M494.3,343.9l-40.6-40.6
			c-2.9-3.1-6.7-5.4-11.5-7.3c-3.6-1.4-7.4-2.2-11.2-2.2c-8.5,0-16.5,3.3-22.5,9.3c-8.8,8.7-11.6,21.9-7.3,33.7
			c1.5,4.4,4.1,8.4,7.3,11.5l40.6,40.7c-6,1.8-12,2.6-18.1,2.6c-34.3,0-63.1-27-65.4-61.5c0-0.1,0-0.1,0-0.2l-0.4-4.5
			c0-7.4,1.5-15,4.3-22.5c1-2.8,0.4-5.9-1.7-7.9l-7.4-7.4l32.7-32.7l7.4,7.4c2.1,2.1,5.1,2.7,7.8,1.8c7.9-2.9,15.3-4.3,22.4-4.3
			l4.6,0.5c0.1,0,0.1,0,0.2,0c34.5,2.4,61.5,31.2,61.5,65.6C497,332,496.1,338,494.3,343.9z"/>
	</g>
</g>
</svg>
