<?xml version="1.0" standalone="no"?>
<!DOCTYPE svg PUBLIC "-//W3C//DTD SVG 20010904//EN"
 "http://www.w3.org/TR/2001/REC-SVG-20010904/DTD/svg10.dtd">
<svg version="1.0" xmlns="http://www.w3.org/2000/svg"
 width="400.000000pt" height="400.000000pt" viewBox="0 0 400.000000 400.000000"
 preserveAspectRatio="xMidYMid meet">
<metadata>
Created by potrace 1.11, written by Peter Selinger 2001-2013
</metadata>
<g transform="translate(0.000000,400.000000) scale(0.100000,-0.100000)"
fill="#000000" stroke="none">
<path d="M1822 3660 c-53 -6 -76 -22 -67 -48 3 -8 5 -18 5 -23 0 -5 7 -9 15
-9 11 0 15 -11 16 -37 0 -21 2 -55 4 -75 2 -27 -1 -38 -11 -38 -22 0 -29 -48
-9 -70 14 -16 26 -18 69 -13 78 9 97 36 56 83 -11 13 -20 34 -20 48 0 21 6 15
36 -34 53 -88 62 -96 103 -89 19 3 37 8 40 11 6 6 2 197 -5 203 -2 2 5 11 17
19 14 10 19 23 17 45 -3 32 -3 32 -64 33 -71 1 -99 -14 -91 -48 6 -22 5 -22
-8 -4 -8 11 -15 22 -15 26 0 15 -41 25 -88 20z m148 -86 c0 -8 -4 -12 -10 -9
-5 3 -10 10 -10 16 0 5 5 9 10 9 6 0 10 -7 10 -16z"/>
<path d="M2117 3659 c-22 -13 -23 -67 -2 -76 21 -7 65 -95 65 -128 0 -15 -6
-25 -14 -25 -21 0 -45 -38 -39 -61 6 -20 14 -23 98 -38 30 -6 56 -6 67 0 21
12 24 52 4 68 -8 7 -13 20 -11 29 2 9 4 20 4 23 1 3 17 23 36 44 31 32 45 41
76 44 12 2 17 56 8 68 -10 11 -40 18 -122 28 -21 2 -41 6 -45 9 -4 2 -27 7
-52 11 -25 4 -47 8 -50 10 -3 2 -13 -1 -23 -6z"/>
<path d="M1520 3603 c-114 -39 -145 -176 -59 -263 79 -78 224 -48 278 58 31
60 -8 174 -69 203 -38 17 -100 18 -150 2z m93 -103 c28 -33 30 -63 7 -88 -23
-25 -33 -27 -60 -12 -22 12 -34 57 -24 94 8 32 51 36 77 6z"/>
<path d="M1260 3504 c-30 -18 -85 -48 -122 -66 -41 -20 -69 -40 -72 -52 -6
-23 19 -56 43 -56 25 0 83 -117 71 -141 -6 -9 -7 -24 -4 -33 12 -32 43 -27
126 18 46 25 97 52 113 59 47 22 61 43 45 72 -7 13 -22 25 -34 27 -29 4 -77
94 -71 131 5 31 -7 62 -27 69 -7 3 -38 -10 -68 -28z m-13 -120 c-3 -3 -12 -4
-19 -1 -8 3 -5 6 6 6 11 1 17 -2 13 -5z m58 -113 c-3 -6 -11 -8 -17 -5 -6 4
-5 9 3 15 16 10 23 4 14 -10z"/>
<path d="M2592 3503 c-13 -10 -24 -28 -25 -40 -1 -13 -5 -23 -10 -23 -5 0 -25
-8 -44 -17 -99 -47 -59 -191 55 -197 25 -1 46 -10 64 -28 47 -48 108 -46 108
3 0 23 -28 51 -43 43 -7 -3 -3 2 7 10 11 9 30 16 41 16 24 0 52 27 51 50 -1 8
-21 25 -45 37 -33 17 -40 24 -28 29 9 3 15 10 12 14 -3 5 -1 11 5 15 25 16 -9
84 -46 93 -63 14 -81 13 -102 -5z m108 -143 c0 -5 -5 -10 -11 -10 -5 0 -7 5
-4 10 3 6 8 10 11 10 2 0 4 -4 4 -10z m-120 -36 c0 -8 -4 -12 -10 -9 -5 3 -10
10 -10 16 0 5 5 9 10 9 6 0 10 -7 10 -16z"/>
<path d="M983 3337 c-41 -32 -74 -60 -95 -79 -10 -10 -21 -18 -24 -18 -11 0
-44 -43 -44 -57 0 -8 11 -25 24 -37 12 -13 26 -31 29 -40 10 -26 52 -20 67 10
11 20 12 29 2 47 -11 20 -11 20 5 -1 10 -13 31 -38 46 -57 17 -20 24 -36 17
-40 -15 -9 -12 -29 9 -53 24 -28 29 -28 71 8 19 17 47 41 62 53 34 27 35 43 6
67 -16 13 -28 15 -40 9 -13 -7 -23 0 -48 31 -28 36 -30 40 -12 40 20 0 45 23
48 45 2 16 -62 88 -82 91 -7 1 -26 -8 -41 -19z"/>
<path d="M2942 3290 c-24 -10 -42 -47 -42 -86 0 -21 -4 -24 -20 -19 -14 4 -29
-4 -55 -32 -19 -20 -35 -42 -35 -48 0 -13 85 -95 99 -95 6 0 11 -4 11 -8 0 -4
14 -9 31 -10 43 -3 99 53 99 100 0 26 4 34 20 35 19 2 42 20 69 55 11 15 6 23
-34 64 -49 49 -97 64 -143 44z m-21 -193 c-8 -8 -11 -3 -11 19 1 25 2 27 11
11 8 -14 8 -22 0 -30z"/>
<path d="M1860 3232 c-14 -1 -50 -7 -80 -14 -30 -6 -59 -12 -65 -13 -39 -3
-228 -70 -255 -90 -8 -6 -44 -24 -80 -38 -77 -32 -188 -114 -281 -206 -70 -70
-159 -182 -159 -200 0 -6 -4 -11 -8 -11 -24 0 -147 -296 -167 -402 -3 -13 -7
-34 -10 -48 -28 -141 2 -155 82 -39 l47 70 21 -23 c12 -13 32 -42 45 -65 14
-26 31 -43 41 -43 19 0 19 0 59 155 30 114 99 250 174 343 38 47 147 147 195
179 31 21 58 41 61 44 8 11 154 79 168 79 7 0 20 5 30 10 9 6 58 19 107 29 92
20 320 24 375 7 14 -4 36 -9 50 -11 14 -2 44 -11 68 -19 23 -8 42 -13 42 -10
0 3 24 -7 53 -22 28 -15 60 -31 70 -36 28 -13 62 -33 67 -38 3 -3 20 -17 39
-30 51 -35 160 -148 210 -217 54 -75 101 -162 131 -239 36 -98 38 -95 -46 -63
-88 34 -94 35 -95 12 0 -12 -3 -10 -9 7 -46 140 -190 315 -325 396 -89 53
-206 100 -274 110 -15 2 -48 7 -76 11 -71 12 -146 8 -254 -13 -54 -10 -141
-38 -141 -45 0 -5 -3 -8 -7 -7 -12 4 -93 -35 -93 -44 0 -4 -5 -8 -12 -8 -29 0
-159 -113 -214 -186 -16 -21 -32 -41 -36 -44 -22 -17 -93 -176 -115 -259 -33
-122 -35 -277 -6 -388 11 -40 18 -73 17 -73 -1 0 -20 29 -42 63 -22 35 -48 71
-57 80 -9 10 -13 17 -10 17 4 0 -4 15 -18 33 -14 18 -57 80 -96 137 -39 58
-78 108 -85 112 -9 5 -25 -7 -51 -37 -20 -25 -34 -45 -31 -45 3 0 -2 -8 -11
-19 -10 -10 -43 -55 -73 -100 -30 -45 -81 -118 -113 -163 -31 -45 -57 -87 -57
-95 0 -18 25 -27 48 -18 9 5 22 9 27 11 6 2 35 12 65 22 l55 19 7 -21 c3 -11
17 -55 29 -96 134 -451 524 -794 984 -866 155 -25 422 -12 515 24 14 5 50 18
80 27 54 18 196 80 255 112 86 46 217 157 307 261 40 46 148 206 148 219 0 4
15 37 33 73 36 70 82 222 94 310 11 84 9 100 -14 100 -11 0 -32 -23 -53 -55
-54 -85 -65 -96 -78 -83 -7 7 -12 18 -12 25 0 7 -9 18 -20 25 -11 7 -20 18
-20 25 0 12 -38 43 -52 43 -7 0 -21 -43 -32 -100 -24 -120 -126 -327 -198
-402 -13 -13 -35 -37 -49 -53 -33 -39 -94 -91 -144 -124 -22 -14 -42 -28 -45
-31 -21 -24 -213 -105 -272 -115 -18 -3 -41 -8 -50 -11 -87 -26 -285 -26 -393
0 -137 32 -244 77 -330 136 -70 48 -207 187 -259 264 -50 72 -117 206 -134
267 -9 34 -8 36 12 31 11 -3 26 -9 32 -13 6 -5 20 -10 32 -12 12 -2 25 -6 28
-10 12 -12 54 -8 55 6 0 6 6 -1 13 -18 25 -63 69 -145 77 -145 5 0 9 -7 9 -15
0 -26 171 -189 245 -233 203 -121 430 -151 654 -86 71 20 205 85 251 121 56
44 190 185 190 199 0 8 4 14 8 14 11 0 75 129 92 185 7 22 16 51 21 65 25 80
28 283 5 368 -8 28 -12 52 -9 52 3 0 0 7 -7 15 -7 8 -10 15 -7 15 5 0 33 -41
205 -295 70 -104 104 -145 122 -145 4 0 34 39 66 86 33 47 65 92 72 100 7 8
11 14 7 14 -3 0 5 12 19 26 13 15 30 38 38 53 7 14 15 28 19 31 26 23 100 143
95 155 -8 21 -27 19 -112 -11 -80 -29 -94 -26 -97 17 0 13 -16 67 -35 119 -19
52 -36 105 -39 118 -3 12 -9 22 -13 22 -4 0 -11 11 -14 25 -4 14 -11 25 -16
25 -6 0 -10 6 -10 13 0 15 -60 107 -110 168 -72 89 -233 239 -257 239 -7 0
-13 4 -13 9 0 5 -15 16 -32 25 -18 9 -55 30 -83 46 -27 17 -57 33 -65 36 -60
25 -171 64 -191 67 -13 2 -31 6 -39 10 -59 22 -307 40 -410 29z m-100 -704
c-24 -64 -25 -91 -4 -112 33 -34 49 -20 79 69 16 49 34 85 42 85 7 0 13 -3 13
-8 0 -6 -33 -100 -58 -163 -22 -55 -21 -88 3 -123 13 -19 26 -43 30 -55 3 -12
11 -21 16 -21 5 0 9 -5 9 -10 0 -6 10 -26 23 -45 15 -24 28 -34 42 -33 19 3
20 11 20 116 0 70 4 111 10 109 6 -2 10 -44 11 -94 1 -49 4 -95 8 -101 16 -26
42 -11 69 41 16 28 39 72 53 96 24 44 24 54 1 111 -5 14 -11 30 -13 35 -1 6
-8 24 -15 40 -16 38 -17 57 -4 62 6 2 21 -26 33 -62 17 -45 29 -65 40 -65 40
1 57 37 42 88 -6 17 -14 46 -19 62 -8 24 -7 30 5 30 8 0 19 -11 24 -25 12 -31
42 -33 63 -2 15 21 15 21 23 3 5 -13 3 -21 -4 -24 -7 -2 -12 -12 -12 -22 0
-19 38 -34 63 -24 8 3 17 -1 20 -9 4 -10 -12 -17 -59 -27 -56 -11 -67 -16 -80
-42 -13 -26 -14 -33 -2 -44 12 -12 27 -11 101 5 81 18 107 15 93 -8 -3 -5 -23
-11 -43 -14 -21 -2 -49 -7 -63 -11 -14 -4 -45 -9 -70 -13 -66 -9 -75 -16 -121
-100 -24 -43 -49 -84 -56 -91 -17 -18 -17 -58 1 -65 7 -3 50 16 94 43 44 26
89 51 101 55 40 12 21 -12 -31 -40 -29 -16 -55 -31 -58 -34 -3 -4 -18 -12 -33
-19 -15 -6 -30 -19 -34 -27 -11 -31 22 -40 133 -35 98 5 107 7 126 30 11 14
39 48 63 75 24 28 55 64 69 80 24 28 25 29 26 8 0 -12 -6 -28 -13 -35 -51 -54
-98 -121 -95 -135 2 -12 14 -19 35 -21 31 -3 61 20 108 84 20 28 29 10 14 -30
-15 -40 -10 -49 26 -48 35 0 31 -24 -5 -31 -24 -5 -30 -12 -30 -31 0 -14 7
-29 15 -33 9 -6 11 -13 5 -23 -7 -11 -17 -5 -49 32 -41 46 -76 62 -105 46 -24
-13 -20 -34 14 -68 31 -31 35 -42 23 -53 -7 -8 -93 80 -93 95 0 5 -13 14 -28
21 -32 13 -234 8 -248 -6 -13 -13 10 -40 52 -62 95 -50 124 -70 124 -81 0 -8
-35 7 -84 36 -46 26 -94 51 -105 55 -28 8 -37 -16 -19 -49 46 -87 103 -176
117 -181 21 -8 89 -19 124 -20 15 0 27 -3 27 -7 0 -5 13 -8 29 -8 40 0 61 -9
61 -27 0 -10 -6 -13 -16 -9 -9 3 -39 9 -67 12 -29 4 -62 10 -74 15 -45 17 -62
-45 -21 -78 12 -11 61 -20 111 -22 10 -1 17 -7 14 -13 -3 -12 -11 -14 -61 -17
-18 -1 -19 -10 -5 -60 6 -22 -19 -24 -26 -2 -10 31 -53 28 -61 -4 -3 -14 -12
-25 -20 -25 -18 0 -18 12 1 57 8 19 15 46 15 59 0 29 -34 66 -54 58 -9 -3 -28
-44 -43 -90 -15 -48 -33 -84 -40 -84 -18 0 -18 0 27 132 46 134 48 118 -32
246 -62 98 -82 84 -83 -55 0 -55 -4 -93 -10 -93 -6 0 -9 45 -7 120 l3 120 -24
0 c-19 0 -33 -17 -79 -97 -30 -54 -57 -106 -61 -115 -3 -9 3 -40 14 -70 11
-29 25 -66 31 -83 5 -16 17 -45 25 -63 8 -19 12 -36 9 -39 -11 -11 -34 6 -40
32 -4 14 -16 50 -27 80 -22 58 -45 71 -75 41 -18 -19 -18 -31 5 -96 11 -30 17
-58 14 -62 -7 -12 -23 1 -33 28 -11 29 -41 31 -58 4 -20 -32 -31 -23 -25 21
l6 42 -32 -5 c-18 -3 -36 1 -42 8 -8 10 3 15 51 25 66 13 102 43 93 79 -6 24
-24 25 -113 5 -83 -18 -90 -18 -90 0 0 8 7 15 15 15 18 0 11 -1 60 11 22 5 59
12 83 14 77 9 104 27 136 91 17 33 38 72 49 87 21 30 17 57 -8 57 -15 0 -99
-43 -152 -78 -19 -12 -23 -12 -23 -1 0 8 40 37 90 64 71 40 90 55 90 73 0 25
6 24 -155 23 -94 0 -111 -3 -122 -18 -34 -47 -149 -182 -155 -183 -22 -1 -2
40 47 97 58 68 65 87 39 97 -38 14 -60 5 -106 -46 -40 -45 -47 -49 -48 -31 0
12 5 25 10 28 6 3 10 15 10 26 0 14 -9 21 -30 26 -39 7 -41 35 -2 31 23 -3 27
1 30 23 2 14 -4 31 -12 38 -8 7 -12 19 -9 28 5 11 17 3 53 -36 37 -40 53 -51
77 -51 32 0 49 21 36 43 -4 7 -30 39 -59 72 -34 40 -50 65 -45 74 10 15 11 14
106 -98 38 -45 78 -84 89 -87 12 -3 66 -4 121 -2 94 3 100 4 103 25 3 17 -11
30 -70 64 -40 24 -76 43 -80 42 -3 -2 -9 4 -12 12 -3 8 -1 15 4 15 10 0 82
-39 141 -76 32 -20 39 -21 55 -9 18 13 18 14 1 47 -59 114 -112 184 -139 185
-24 1 -113 15 -119 19 -4 2 -28 6 -55 9 -56 7 -55 7 -45 23 6 11 25 10 97 -2
112 -20 104 -21 104 12 0 38 -29 62 -81 68 -55 7 -71 15 -60 33 6 10 13 10 28
3 14 -8 23 -8 31 0 15 15 15 45 1 54 -8 4 -7 10 1 18 8 8 15 7 24 -6 7 -10 23
-18 35 -18 12 0 25 8 28 18 7 17 22 32 35 32 5 0 -1 -24 -12 -52z m330 38 c0
-2 -7 -6 -15 -10 -8 -3 -15 -1 -15 4 0 6 7 10 15 10 8 0 15 -2 15 -4z m443
-773 c-4 -10 -11 -7 -28 9 -18 17 -21 26 -12 36 9 11 14 9 28 -9 9 -13 15 -29
12 -36z"/>
<path d="M739 3118 c-24 -27 -38 -51 -37 -65 2 -13 6 -23 10 -23 4 0 8 -4 8
-9 0 -4 -11 -6 -25 -3 -25 4 -47 -14 -97 -79 -16 -20 -16 -26 -4 -43 9 -14 23
-20 42 -19 27 2 63 -18 111 -63 22 -20 24 -26 13 -40 -10 -11 -25 -14 -54 -10
-23 3 -53 5 -69 5 -19 1 -30 8 -36 25 -9 23 -29 36 -56 36 -7 0 -32 -37 -54
-82 -38 -76 -40 -83 -26 -105 16 -23 51 -31 57 -13 2 6 28 -12 58 -39 37 -34
54 -57 52 -70 -2 -14 6 -25 26 -35 27 -14 31 -14 46 3 9 10 16 22 16 28 0 6 7
16 15 23 18 15 20 66 3 74 -7 3 -4 4 6 3 13 -1 27 10 40 31 22 34 93 143 111
168 16 22 -8 49 -44 50 -19 1 -42 10 -54 22 l-21 22 32 -9 c18 -6 35 -10 37
-10 3 -1 6 -1 8 -2 1 0 22 -3 46 -5 36 -4 49 0 68 18 21 20 32 68 16 68 -8 0
-46 30 -95 75 -14 14 -31 25 -37 25 -10 0 -15 14 -12 34 3 16 -29 56 -45 56
-9 0 -34 -19 -55 -42z m56 -116 c-3 -3 -11 0 -18 7 -9 10 -8 11 6 5 10 -3 15
-9 12 -12z m-86 -360 c8 -15 5 -18 -15 -20 -22 -2 -23 0 -12 18 15 24 15 24
27 2z"/>
<path d="M3085 3091 c-98 -60 -116 -170 -41 -254 67 -75 158 -85 228 -24 49
42 69 109 48 164 -20 56 -49 91 -95 113 -52 25 -101 25 -140 1z m105 -101 c0
-5 6 -10 14 -10 8 0 16 -6 19 -14 6 -15 -24 -65 -47 -78 -23 -13 -63 1 -70 25
-7 28 19 67 44 67 11 0 20 5 20 10 0 6 5 10 10 10 6 0 10 -4 10 -10z"/>
<path d="M3362 2838 c-6 -6 -12 -19 -12 -28 0 -9 -25 -28 -63 -47 -52 -25 -64
-28 -75 -17 -9 10 -18 11 -37 2 -13 -6 -26 -16 -29 -23 -7 -20 40 -113 62
-120 27 -8 61 13 55 35 -3 10 3 20 14 24 10 3 24 9 32 12 12 6 -21 -50 -39
-66 -13 -12 -40 -60 -40 -73 0 -7 6 -25 13 -40 15 -33 53 -36 90 -7 14 11 31
20 39 20 7 0 28 9 47 21 25 15 40 18 55 12 23 -10 33 -10 59 1 23 11 22 26
-10 92 -26 52 -30 55 -57 50 -28 -6 -28 -5 -13 12 23 25 21 48 -7 102 -24 47
-59 63 -84 38z m68 -192 c0 -8 -7 -16 -15 -20 -12 -4 -13 -2 -2 14 14 24 17
25 17 6z"/>
<path d="M495 2370 c-10 -16 -29 -118 -41 -218 -24 -207 11 -521 60 -530 41
-8 42 14 10 173 -12 61 -11 321 2 405 30 195 30 180 1 180 -14 0 -29 -4 -32
-10z"/>
<path d="M3414 2333 c3 -27 8 -57 10 -68 31 -158 29 -408 -5 -565 -6 -28 -8
-57 -5 -65 9 -23 45 -18 55 8 49 126 59 444 20 634 -6 29 -9 54 -8 55 1 2 -3
13 -10 26 -7 14 -21 22 -38 22 -25 0 -25 -1 -19 -47z"/>
<path d="M596 1552 c-8 -24 -63 -44 -87 -32 -13 7 -22 6 -33 -5 -13 -14 -13
-21 -1 -63 8 -26 15 -48 15 -49 0 -2 7 -3 16 -3 12 0 14 -3 6 -12 -7 -9 -5
-25 5 -51 13 -32 20 -38 39 -34 24 4 34 -8 13 -15 -8 -3 -9 -15 -4 -36 8 -39
27 -41 86 -7 50 28 69 31 69 11 0 -19 -49 -50 -80 -50 -20 -1 -26 -7 -28 -28
-2 -16 2 -28 8 -28 6 0 8 -4 5 -10 -3 -5 -3 -10 2 -10 4 0 18 -16 31 -34 26
-38 67 -57 97 -45 28 11 54 11 37 1 -7 -5 -16 -22 -21 -39 -17 -58 39 -129
107 -138 27 -3 39 3 73 35 28 26 39 45 35 55 -3 9 -6 25 -6 35 0 11 -17 35
-37 55 -32 31 -43 36 -73 32 -19 -2 -44 -8 -54 -12 -17 -8 -17 -6 2 13 20 20
24 30 25 65 0 23 -32 84 -57 108 -14 13 -26 32 -26 42 0 10 -10 28 -23 41 -12
12 -23 32 -24 44 -1 12 -11 35 -22 51 -11 15 -18 31 -15 34 3 3 -3 26 -15 51
-21 49 -54 63 -65 28z m38 -116 c-5 -14 -81 -43 -89 -34 -12 12 8 35 38 44 38
11 58 7 51 -10z m122 -292 c-19 -14 -56 -20 -43 -8 12 12 52 31 57 27 3 -3 -4
-11 -14 -19z m144 -148 c0 -8 -7 -22 -17 -31 -15 -16 -17 -16 -26 1 -7 13 -5
21 9 31 23 17 34 17 34 -1z"/>
<path d="M3316 1552 c-12 -11 -39 -74 -43 -101 -5 -28 22 -90 44 -98 12 -5 12
-7 1 -14 -17 -11 -19 -47 -2 -53 8 -3 14 -11 14 -17 0 -8 -7 -6 -18 4 -10 10
-23 17 -28 17 -5 0 -14 10 -19 23 -18 40 -48 33 -73 -17 -26 -54 -20 -77 17
-74 30 2 62 -13 81 -39 12 -15 12 -16 0 -5 -8 6 -26 12 -41 12 -34 0 -42 -25
-20 -60 l16 -24 -32 23 c-17 13 -34 34 -37 47 -8 31 -30 30 -61 0 -46 -46 -42
-104 6 -92 17 4 69 -34 69 -51 0 -17 22 -31 41 -26 10 3 29 22 41 42 12 20 30
45 40 55 14 15 15 23 6 40 -6 12 -7 18 -3 14 11 -10 45 10 45 27 0 7 3 15 8
17 4 2 17 22 29 46 l23 43 -25 25 c-22 21 -22 24 -5 24 31 0 79 48 86 86 7 40
-10 90 -34 99 -24 9 -55 -31 -42 -55 21 -40 -13 -66 -44 -34 -21 21 -20 31 4
39 28 9 42 38 27 57 -14 18 -61 31 -71 20z"/>
<path d="M2953 988 c-13 -6 -25 -19 -28 -29 -4 -11 -12 -19 -19 -19 -7 0 -21
-9 -32 -21 -10 -12 -50 -42 -87 -67 -37 -25 -71 -50 -75 -56 -4 -6 -11 -11
-17 -11 -5 -1 -27 -9 -47 -20 -45 -22 -53 -61 -15 -70 24 -6 47 -46 47 -79 -1
-16 -4 -13 -15 12 -8 17 -18 32 -24 32 -27 0 -41 -14 -41 -44 l0 -31 -18 35
c-9 19 -13 38 -9 41 5 4 6 16 2 28 -8 25 -32 27 -80 7 -45 -19 -50 -62 -10
-72 14 -4 24 -9 21 -11 -3 -3 2 -19 10 -34 13 -26 13 -30 -1 -35 -27 -11 -79
53 -68 84 3 7 -3 19 -13 27 -15 11 -26 10 -64 -1 -25 -7 -50 -20 -56 -28 -8
-12 -14 -12 -22 -4 -8 8 -21 8 -50 0 -22 -7 -53 -12 -69 -12 -43 0 -60 -23
-40 -53 8 -12 18 -42 22 -65 8 -48 26 -71 58 -73 75 -4 100 22 92 99 -6 56 -2
74 18 66 14 -5 16 -71 3 -92 -12 -19 3 -52 24 -52 30 0 70 22 63 34 -4 6 1 5
10 -3 10 -8 24 -10 34 -6 10 5 25 9 33 11 8 2 16 8 18 13 2 6 13 11 25 11 28
0 147 50 147 62 0 4 5 8 11 8 19 0 83 33 96 49 13 19 0 51 -22 51 -8 0 -21 13
-30 30 -20 39 -19 41 10 28 18 -8 28 -8 39 1 18 15 29 1 30 -43 1 -42 22 -43
74 -5 46 34 52 53 22 69 -11 6 -20 8 -20 5 0 -3 -6 0 -14 7 -12 11 -11 16 4
30 11 10 16 25 13 37 -4 17 -1 19 23 15 30 -5 58 -23 50 -32 -10 -9 15 -42 30
-42 25 0 85 65 78 84 -3 9 -14 16 -24 16 -27 0 -42 25 -40 67 1 21 2 44 1 51
-1 14 -28 15 -58 0z m-536 -490 c-3 -8 -6 -5 -6 6 -1 11 2 17 5 13 3 -3 4 -12
1 -19z"/>
<path d="M3086 948 c-26 -15 -19 -51 17 -79 25 -20 38 -24 50 -17 21 12 22 32
0 68 -19 32 -42 42 -67 28z"/>
<path d="M1015 932 c-12 -1 -34 -13 -50 -26 -25 -20 -30 -31 -30 -70 0 -38 5
-51 30 -76 45 -45 95 -50 140 -16 19 15 35 34 35 44 0 12 3 13 11 5 13 -13
-18 -73 -38 -73 -20 0 -34 -35 -20 -52 20 -24 68 -50 83 -44 8 3 14 -1 14 -10
0 -18 43 -39 66 -30 13 5 15 14 10 45 -5 33 -3 39 13 44 13 3 22 17 27 43 6
35 4 40 -27 66 -18 15 -39 28 -46 28 -7 0 -13 4 -13 9 0 16 -39 19 -51 4 -10
-12 -14 -8 -25 24 -20 59 -73 94 -129 85z m40 -111 c-9 -29 -35 -27 -35 3 0
25 19 39 33 26 5 -5 6 -17 2 -29z"/>
<path d="M1409 683 c-1 -10 -1 -22 0 -26 2 -14 -51 -77 -65 -77 -8 0 -14 -10
-14 -24 0 -17 8 -27 33 -36 17 -6 51 -20 75 -31 50 -22 68 -24 75 -6 3 7 6 6
6 -5 1 -17 10 -21 70 -33 23 -5 36 -3 42 6 7 11 9 10 9 -3 0 -19 53 -34 95
-26 13 3 26 2 27 -2 7 -17 57 -20 72 -4 15 14 15 18 -2 42 -16 23 -17 30 -5
52 17 34 16 54 -4 78 -16 19 -40 26 -128 36 -16 2 -49 11 -72 19 -35 13 -44
13 -60 2 -14 -11 -16 -18 -7 -32 7 -12 8 -29 1 -55 -10 -41 -33 -57 -42 -29
-9 29 -2 83 12 88 7 3 13 15 13 28 0 39 -129 76 -131 38z m251 -193 c-11 -20
-12 -21 -25 -4 -14 19 -2 72 19 86 15 10 20 -56 6 -82z"/>
<path d="M1983 590 c-13 -5 -32 -24 -43 -42 -24 -38 -20 -90 9 -123 10 -11 21
-27 24 -36 6 -18 92 -34 121 -23 17 7 23 44 6 44 -5 0 2 11 15 25 58 57 9 166
-73 164 -20 0 -47 -4 -59 -9z m70 -89 c3 -12 -1 -22 -10 -25 -22 -9 -23 -8
-23 19 0 30 25 34 33 6z"/>
</g>
</svg>
