<?xml version="1.0" encoding="utf-8"?>
<!-- Generator: Adobe Illustrator 24.3.0, SVG Export Plug-In . SVG Version: 6.00 Build 0)  -->
<svg version="1.1" id="Capa_1" xmlns="http://www.w3.org/2000/svg" xmlns:xlink="http://www.w3.org/1999/xlink" x="0px" y="0px"
	 viewBox="0 0 512 512" style="enable-background:new 0 0 512 512;" xml:space="preserve">
<style type="text/css">
	.st0{fill:#E11919;}
</style>
<g>
	<path class="st0" d="M503,280.9c-9.7-12.4-25.2-18-39.9-15.6c-13.4-15-35.9-18.6-53.4-8l-3,1.7c-13.6-12.3-34.1-14.6-50.2-4.9
		L268.8,305l-29.7-3.7l41.5-29.8c11-7.9,17.6-20.8,17.6-34.3c0-2.8-0.3-5.7-0.9-8.4c-4.6-22.6-26-37.1-48.6-33.2l-9,1.6
		c-36.6,6.4-70.7,20.2-101.5,41c-3.4,2.3-4.3,7-2,10.4s7,4.3,10.4,2c29-19.6,61.1-32.6,95.6-38.6l9-1.6c14.6-2.5,28.4,6.9,31.4,21.4
		c0.4,1.8,0.6,3.6,0.6,5.5c0,8.8-4.3,17.1-11.4,22.2l-57.1,40.9c-2.5,1.8-3.7,5-2.9,7.9s3.3,5.2,6.3,5.6l153.1,19.1
		c1.7,0.2,3.4-0.2,4.8-1l79.5-48.2c11.8-7.1,27.1-4.4,35.6,6.5c3.8,4.9,5.8,10.7,5.8,16.8c0,6.8-2.5,13.3-7,18.3l-72.5,80.3
		c-6.9,7.6-16.3,12.6-26.5,13.9l-215.1,27.4l-6.4-11.2L88.3,294.8l34.7-26.6c3.3-2.5,3.9-7.2,1.4-10.5c-2.5-3.3-7.2-3.9-10.5-1.4
		l-39.6,30.4L3.5,332C0.1,334.1-1,338.5,1,342l93.2,162.1c1,1.8,2.7,3.1,4.7,3.5c0.6,0.1,1.2,0.2,1.8,0.2c1.4,0,2.8-0.4,4-1.2
		l69.7-44.5l218.4-27.8c13.8-1.8,26.5-8.4,35.8-18.7l72.5-80.3c7-7.8,10.9-17.9,10.9-28.3C512,297.6,508.8,288.3,503,280.9
		L503,280.9z M364.1,267.1c0,0,0.1,0,0.1-0.1c8.9-5.4,20-5.1,28.5,0.2L317.1,311l-23.7-3L364.1,267.1z M370.6,317.7l-28.9-3.6
		l75.6-43.9c0,0,0.1,0,0.1-0.1c9.5-5.7,21.2-5.1,29.8,1L370.6,317.7z M103.3,489.8L17.6,340.7L76,303.4l80.9,140.7l4.8,8.4
		L103.3,489.8z"/>
	<path class="st0" d="M116.4,422.4c-12.6,0-22.8,10.2-22.8,22.8s10.2,22.8,22.8,22.8s22.8-10.2,22.8-22.8S128.9,422.4,116.4,422.4z
		 M116.4,453c-4.3,0-7.8-3.5-7.8-7.8s3.5-7.8,7.8-7.8s7.8,3.5,7.8,7.8S120.7,453,116.4,453z"/>
	<path class="st0" d="M230.7,122.2c3.2,3.1,4.7,7.6,3.9,12l-3.8,22.2c-1.9,10.8,2.5,21.5,11.4,28c5,3.6,10.9,5.5,16.8,5.5
		c4.5,0,9.1-1.1,13.3-3.3l20-10.5c4-2.1,8.7-2.1,12.6,0l20,10.5c9.7,5.1,21.2,4.3,30.1-2.2c8.9-6.4,13.2-17.2,11.4-28l-3.8-22.2
		c-0.8-4.4,0.7-8.9,3.9-12l16.2-15.7c7.9-7.7,10.6-18.9,7.2-29.3c-3.4-10.4-12.2-17.9-23.1-19.5l-7.5-1.1c-4.1-0.6-7.9,2.2-8.5,6.3
		s2.2,7.9,6.3,8.5l7.5,1.1c5.2,0.8,9.3,4.2,11,9.2c1.6,5,0.4,10.2-3.4,13.9L356,111.4c-6.7,6.6-9.8,16-8.2,25.3l3.8,22.2
		c0.9,5.2-1.1,10.2-5.4,13.3c-4.3,3.1-9.6,3.5-14.3,1l-20-10.5c-8.3-4.4-18.3-4.4-26.6,0l-20,10.5c-4.7,2.5-10,2.1-14.3-1
		c-4.3-3.1-6.3-8.1-5.4-13.3l3.8-22.2c1.6-9.3-1.5-18.8-8.2-25.3L225,95.7c-3.8-3.7-5.1-8.9-3.4-13.9c1.6-5,5.7-8.5,11-9.2l22.3-3.2
		c9.3-1.4,17.4-7.2,21.5-15.6l10-20.2c2.3-4.7,6.9-7.6,12.2-7.6s9.9,2.8,12.2,7.6l10,20.2c1,2.1,2.3,4,3.8,5.8
		c2.7,3.2,7.4,3.6,10.6,0.9s3.6-7.4,0.9-10.6c-0.7-0.8-1.3-1.7-1.8-2.7l-10-20.2c-4.9-9.8-14.7-15.9-25.6-15.9
		c-11,0-20.8,6.1-25.6,15.9l-10,20.2c-2,4-5.8,6.8-10.2,7.4l-22.3,3.2c-10.8,1.6-19.7,9-23.1,19.5c-3.4,10.4-0.6,21.7,7.2,29.3
		L230.7,122.2z"/>
	<path class="st0" d="M141.4,48.3l19.6,9.6c2.9,1.4,6.1,2.1,9.2,2.1c7.3,0,14.4-3.8,18.3-10.5l1-1.7c5.5-9.5,2.7-21.8-6.5-27.9
		L164.9,7.7c-4.8-3.2-10.8-4.3-16.5-3c-5.7,1.3-10.6,4.9-13.5,10l-2.5,4.3c-2.9,5-3.6,11.1-1.9,16.6
		C132.3,41.1,136.2,45.8,141.4,48.3L141.4,48.3z M145.5,26.5l2.5-4.3c0.8-1.5,2.2-2.5,3.9-2.9c0.5-0.1,0.9-0.2,1.4-0.2
		c1.2,0,2.3,0.3,3.3,1l18.1,12.2c2.6,1.8,3.4,5.3,1.9,8l-1,1.7c-1.6,2.7-5,3.8-7.9,2.4L148,34.9c-1.5-0.7-2.6-2-3.1-3.6
		S144.6,27.9,145.5,26.5z"/>
	<path class="st0" d="M455.7,170.9l-19.6-9.6c-9.9-4.8-21.9-1.2-27.4,8.4l-1,1.7c0,0,0,0,0,0c-5.5,9.5-2.7,21.8,6.5,27.9l18.1,12.2
		c3.5,2.3,7.6,3.6,11.8,3.6c1.6,0,3.2-0.2,4.7-0.5c5.7-1.3,10.6-4.9,13.5-10l2.5-4.3c2.9-5,3.6-11.1,1.9-16.6
		C464.9,178.1,460.9,173.4,455.7,170.9L455.7,170.9z M451.7,192.8l-2.5,4.3c-0.8,1.5-2.2,2.5-3.9,2.9c-1.6,0.4-3.3,0.1-4.7-0.9
		l-18.1-12.2c-2.6-1.8-3.4-5.3-1.9-8l1-1.7c1.6-2.7,5-3.8,7.9-2.4l19.6,9.6c1.5,0.7,2.6,2,3.1,3.6
		C452.7,189.6,452.5,191.3,451.7,192.8L451.7,192.8z"/>
	<path class="st0" d="M115.5,127.5c3.9,3.6,9.1,5.7,14.4,5.7c0.5,0,0.9,0,1.4,0l21.8-1.5c11-0.8,19.6-10,19.6-21v-2
		c0-11-8.6-20.2-19.6-21l-21.8-1.5c-5.8-0.4-11.5,1.6-15.8,5.6s-6.7,9.6-6.7,15.4v5C108.9,117.9,111.3,123.5,115.5,127.5z
		 M123.9,107.1c0-1.7,0.7-3.2,1.9-4.4c1.1-1.1,2.6-1.6,4.1-1.6c0.1,0,0.3,0,0.4,0l21.8,1.5c3.1,0.2,5.6,2.9,5.6,6v2
		c0,3.1-2.5,5.8-5.6,6l-21.8,1.5c-1.7,0.1-3.3-0.5-4.5-1.6c-1.2-1.2-1.9-2.7-1.9-4.4V107.1z"/>
	<path class="st0" d="M465.8,86.2L444,87.6c-11,0.8-19.6,10-19.6,21v2c0,11,8.6,20.2,19.6,21l21.8,1.5c0.5,0,1,0,1.4,0
		c5.3,0,10.5-2,14.4-5.7c4.2-4,6.7-9.6,6.7-15.4v-5c0-5.8-2.4-11.4-6.7-15.4C477.4,87.8,471.6,85.8,465.8,86.2z M471.4,102.7
		c1.2,1.2,1.9,2.7,1.9,4.4v5c0,1.7-0.7,3.2-1.9,4.4s-2.8,1.7-4.5,1.6l-21.8-1.5c-3.1-0.2-5.6-2.9-5.6-6v-2c0-3.1,2.5-5.8,5.6-6
		l21.8-1.5c0.1,0,0.3,0,0.4,0C468.8,101.1,470.2,101.7,471.4,102.7L471.4,102.7z"/>
	<path class="st0" d="M161.1,161.3l-19.6,9.6c-5.2,2.6-9.2,7.2-10.9,12.7c-1.7,5.5-1,11.6,1.9,16.6l2.5,4.3c2.9,5,7.8,8.7,13.5,10
		c1.6,0.4,3.1,0.5,4.7,0.5c4.2,0,8.3-1.2,11.8-3.6l18.1-12.2c9.1-6.1,12-18.4,6.5-27.9l-1-1.7v0C183,160.1,170.9,156.5,161.1,161.3z
		 M174.7,186.9l-18.1,12.2c-1.4,0.9-3.1,1.2-4.7,0.9c-1.6-0.4-3-1.4-3.9-2.9l-2.5-4.3c-0.8-1.5-1-3.1-0.5-4.8
		c0.5-1.6,1.6-2.9,3.1-3.6l19.6-9.6c0.8-0.4,1.7-0.6,2.6-0.6c2.1,0,4.1,1.1,5.2,3v0l1,1.7C178.1,181.6,177.3,185.1,174.7,186.9
		L174.7,186.9z"/>
	<path class="st0" d="M408.6,49.6c3.9,6.7,11,10.5,18.3,10.5c3.1,0,6.2-0.7,9.2-2.1l19.6-9.6c5.2-2.5,9.2-7.2,10.9-12.7
		c1.7-5.5,1-11.6-1.9-16.6l-2.5-4.3c-2.9-5-7.8-8.7-13.5-10c-5.7-1.3-11.7-0.2-16.5,3l-18.1,12.2c-9.1,6.1-12,18.4-6.5,27.9
		L408.6,49.6z M422.5,32.3l18.1-12.2c1-0.7,2.2-1,3.3-1c0.5,0,0.9,0.1,1.4,0.2c1.6,0.4,3,1.4,3.9,2.9l2.5,4.3c0.8,1.5,1,3.1,0.5,4.8
		c-0.5,1.6-1.6,2.9-3.1,3.6l-19.6,9.6c-2.8,1.4-6.3,0.3-7.9-2.4l-1-1.7C419,37.6,419.9,34.1,422.5,32.3L422.5,32.3z"/>
</g>
</svg>
