<?xml version="1.0" encoding="utf-8"?>
<!-- Generator: Adobe Illustrator 24.3.0, SVG Export Plug-In . SVG Version: 6.00 Build 0)  -->
<svg version="1.1" id="Layer_1" xmlns="http://www.w3.org/2000/svg" xmlns:xlink="http://www.w3.org/1999/xlink" x="0px" y="0px"
	 viewBox="0 0 512 512" style="enable-background:new 0 0 512 512;" xml:space="preserve">
<style type="text/css">
	.st0{fill:#E11919;}
</style>
<g>
	<path class="st0" d="M263.5,341.4c0-4.1-3.4-7.5-7.5-7.5s-7.5,3.4-7.5,7.5v4.5c0,4.1,3.4,7.5,7.5,7.5s7.5-3.4,7.5-7.5V341.4z"/>
	<path class="st0" d="M263.5,383.4c0-4.1-3.4-7.5-7.5-7.5s-7.5,3.4-7.5,7.5v4.5c0,4.1,3.4,7.5,7.5,7.5s7.5-3.4,7.5-7.5V383.4z"/>
	<path class="st0" d="M263.5,425.4c0-4.1-3.4-7.5-7.5-7.5s-7.5,3.4-7.5,7.5v4.5c0,4.1,3.4,7.5,7.5,7.5s7.5-3.4,7.5-7.5V425.4z"/>
	<path class="st0" d="M256,459.9c-4.1,0-7.5,3.4-7.5,7.5v4.5c0,4.1,3.4,7.5,7.5,7.5c4.1,0,7.5-3.4,7.5-7.5v-4.5
		C263.5,463.3,260.1,459.9,256,459.9L256,459.9z"/>
	<path class="st0" d="M304,382.1c4.1,0,7.5-3.4,7.5-7.5s-3.4-7.5-7.5-7.5h-8.2c-6.5,0-11.8,5.3-11.8,11.8v18.3
		c0,6.5,5.3,11.8,11.8,11.8h51.4c6.5,0,11.8-5.3,11.8-11.8v-18.3c0-6.5-5.3-11.8-11.8-11.8H339c-4.1,0-7.5,3.4-7.5,7.5
		s3.4,7.5,7.5,7.5h5v11.8h-45v-11.8H304z"/>
	<path class="st0" d="M440.4,419.9c4.1,0,7.5-3.4,7.5-7.5v-37.6c0-29.1-18-56.9-43.7-67.5c0,0-0.1,0-0.1-0.1l-100.7-39l0-19.6
		c17.2-12.6,29.1-31.9,31.7-54.1c19.5-1.7,34-17.3,34-35.4c0-8.9-3.4-17.6-9.1-24.3v-33.2C360.1,45.6,314.4,0,258.3,0h-4.7
		c-56.1,0-101.7,45.6-101.7,101.7v34.1c-5.8,6.6-9.1,15-9.1,23.5c0,17.9,14.3,33.6,34,35.3c2.6,21.8,14.1,41.2,31.7,54V268
		c-11.8,4.6-91,35.5-100.7,39.3c0,0-0.1,0-0.1,0.1c-21,8.7-43.7,33.5-43.7,67.5v116.7c0,11.3,9.2,20.5,20.5,20.5h342.8
		c11.3,0,20.5-9.2,20.5-20.5v-44.1c0-4.1-3.4-7.5-7.5-7.5c-4.1,0-7.5,3.4-7.5,7.5v44.1c0,3-2.5,5.5-5.5,5.5h-39.7V367.2
		c0-4.1-3.4-7.5-7.5-7.5s-7.5,3.4-7.5,7.5V497H139.3V367.2c0-4.1-3.4-7.5-7.5-7.5s-7.5,3.4-7.5,7.5V497H84.6c-3,0-5.5-2.5-5.5-5.5
		V374.8c0-28.9,20.5-47.9,34.3-53.6l62.6-24.5l37.8,31.4c6.7,5.5,16.6,4.1,21.4-3.1l8.2-12.2h25l8.2,12.2c4.8,7.1,14.8,8.6,21.4,3.1
		l37.7-31.2l62.8,24.3c17.1,7.1,34.3,27.7,34.3,53.6v37.6C432.9,416.5,436.3,419.9,440.4,419.9L440.4,419.9z M354.2,159.2
		c0,10.3-8.2,18.5-18.5,20.2v-37.9c1.9-0.2,4.2-0.8,6-1.5C344,139,354.2,147.3,354.2,159.2L354.2,159.2z M176.3,179.4
		c-10.3-1.7-18.5-9.9-18.5-20.1c0-7.1,4.2-13.9,10.2-17.8c0,0,0,0,0,0c0.4-0.3,1.1-0.4,1.9-0.3c2.8,0.5,4.7,0.4,6.4,0.4L176.3,179.4
		L176.3,179.4z M171.9,126.6c-2.8,0-5-2.2-5-5v-19.9c0-47.9,38.8-86.7,86.7-86.7h4.7c47.9,0,86.7,38.8,86.7,86.7v23.4
		c-3-0.5-6.3-0.2-9.2,1c-2.7,1.1-7.4,0-10.2-1.3c-6.3-3-10.6-9.5-10.6-16.7c0-4.1-2.8-7.6-6.7-8.6h0h0l-0.2,0c-4.1-0.7-8,1.4-10,5
		c-7.5,13.7-21.8,22.1-37.4,22.1L171.9,126.6L171.9,126.6z M191.3,185.2v-43.6h69.5c16.8,0,32.2-7.3,42.7-18.9
		c3.6,7.5,9.9,13.3,17.2,16.3v46.1c0,35-28.5,63.6-63.6,63.7c0,0,0,0-0.1,0c0,0,0,0-0.1,0C216.1,248.8,191.3,216.7,191.3,185.2
		L191.3,185.2z M223.1,316.3L192,290.5l21.5-8.4l20.9,17.3C233.9,300.2,223.5,315.6,223.1,316.3z M267.7,288.1c-3,2.5-4.8,6-5.2,9.7
		h-12.9c-0.4-3.6-2.2-7.2-5.2-9.7l-20.9-17.4c0.1-0.5,0.2-1.6,0.2-2.3v-11.3c20,8.6,43.5,9.4,64.9,0.2l0,11.2c0,0,0,0,0,0
		c0,0.8,0.1,1.5,0.2,2.3L267.7,288.1z M288.9,316.3c-0.5-0.7-10.8-16.1-11.4-16.8l20.6-17.1c17.4,6.7,13.3,5.1,21.6,8.4L288.9,316.3
		z"/>
</g>
</svg>
